<svg width="45" height="73" viewBox="0 0 45 73" fill="none" xmlns="http://www.w3.org/2000/svg">
<path d="M30.671 23.1786C30.4267 23.1797 30.1847 23.1304 29.9589 23.0336C29.7331 22.9369 29.5282 22.7945 29.3559 22.6149C28.4643 21.6892 27.4054 20.9549 26.2399 20.4539C25.0744 19.9528 23.8251 19.695 22.5634 19.695C21.3017 19.695 20.0523 19.9528 18.8868 20.4539C17.7213 20.9549 16.6625 21.6892 15.7708 22.6149C15.4216 22.977 14.9481 23.1804 14.4542 23.1804C13.9604 23.1804 13.4868 22.977 13.1376 22.6149C12.7884 22.2528 12.5923 21.7617 12.5923 21.2497C12.5923 20.7376 12.7884 20.2465 13.1376 19.8845C14.375 18.6007 15.8441 17.5822 17.4612 16.8874C19.0782 16.1926 20.8115 15.8349 22.5619 15.8349C24.3122 15.8349 26.0455 16.1926 27.6625 16.8874C29.2796 17.5822 30.7487 18.6007 31.9861 19.8845C32.2459 20.1544 32.4228 20.4982 32.4944 20.8723C32.566 21.2464 32.5291 21.6341 32.3884 21.9865C32.2477 22.3389 32.0095 22.6402 31.7039 22.8524C31.3982 23.0645 31.0388 23.1781 30.671 23.1786Z" fill="#FFCE42"/>
<path d="M8.11549 17.9318C7.75546 17.9312 7.40367 17.8146 7.1045 17.5965C6.80532 17.3785 6.57216 17.0689 6.43446 16.7067C6.29676 16.3445 6.26068 15.9461 6.33077 15.5616C6.40086 15.1772 6.57398 14.824 6.82828 14.5465C8.89243 12.2939 11.3445 10.5066 14.044 9.28721C16.7435 8.06778 19.6375 7.44009 22.5602 7.44009C25.4828 7.44009 28.3768 8.06778 31.0763 9.28721C33.7759 10.5066 36.2279 12.2939 38.292 14.5465C38.6338 14.9186 38.8258 15.4233 38.8258 15.9495C38.8258 16.4757 38.6338 16.9804 38.292 17.3525C38.1228 17.5367 37.9219 17.6829 37.7008 17.7826C37.4797 17.8823 37.2427 17.9336 37.0034 17.9336C36.52 17.9336 36.0564 17.7246 35.7147 17.3525C33.9882 15.4699 31.9377 13.9764 29.6805 12.9574C27.4233 11.9384 25.0037 11.4139 22.5602 11.4139C20.1166 11.4139 17.697 11.9384 15.4398 12.9574C13.1827 13.9764 11.1322 15.4699 9.40568 17.3525C9.23633 17.5369 9.03515 17.683 8.81373 17.7824C8.5923 17.8819 8.355 17.9326 8.11549 17.9318Z" fill="#FFCE42"/>
<path d="M42.3063 11.636C42.0742 11.6363 41.8444 11.5924 41.6299 11.5067C41.4155 11.4211 41.2207 11.2954 41.0566 11.1369C38.5616 8.71992 35.5975 6.80229 32.334 5.49386C29.0705 4.18543 25.5719 3.51191 22.0385 3.51191C18.5052 3.51191 15.0065 4.18543 11.7431 5.49386C8.47961 6.80229 5.51547 8.71992 3.02049 11.1369C2.68867 11.4574 2.23863 11.6375 1.76937 11.6375C1.3001 11.6375 0.850049 11.4574 0.518229 11.1369C0.186408 10.8163 0 10.3816 0 9.92825C0 9.47492 0.186408 9.04017 0.518229 8.71962C3.34174 5.98559 6.6958 3.81646 10.3883 2.33646C14.0809 0.856448 18.0394 0.094635 22.0371 0.094635C26.0348 0.094635 29.9933 0.856448 33.6859 2.33646C37.3784 3.81646 40.7325 5.98559 43.556 8.71962C43.8029 8.95863 43.9709 9.26293 44.039 9.59413C44.107 9.92532 44.072 10.2686 43.9383 10.5806C43.8046 10.8925 43.5783 11.1593 43.2878 11.3471C42.9973 11.5349 42.6558 11.6355 42.3063 11.636Z" fill="#FFCE42"/>
<path d="M29.9592 72.4989H14.1137C13.9172 72.5054 13.721 72.483 13.5368 72.4333C13.3526 72.3835 13.1844 72.3073 13.0422 72.2093C12.9 72.1114 12.7868 71.9936 12.7095 71.8632C12.6322 71.7328 12.5923 71.5925 12.5923 71.4507C12.5923 71.3088 12.6322 71.1685 12.7095 71.0381C12.7868 70.9077 12.9 70.79 13.0422 70.692C13.1844 70.594 13.3526 70.5178 13.5368 70.4681C13.721 70.4183 13.9172 70.3959 14.1137 70.4024H29.9592C30.1557 70.3959 30.352 70.4183 30.5361 70.4681C30.7203 70.5178 30.8886 70.594 31.0308 70.692C31.1729 70.79 31.2861 70.9077 31.3635 71.0381C31.4408 71.1685 31.4806 71.3088 31.4806 71.4507C31.4806 71.5925 31.4408 71.7328 31.3635 71.8632C31.2861 71.9936 31.1729 72.1114 31.0308 72.2093C30.8886 72.3073 30.7203 72.3835 30.5361 72.4333C30.352 72.483 30.1557 72.5054 29.9592 72.4989Z" fill="#FFCE42"/>
<path d="M22.0362 72.5C21.7594 72.5 21.4938 72.3498 21.2972 72.082C21.1007 71.8142 20.9891 71.4505 20.9868 71.0703V59.2508C20.9868 58.8684 21.0974 58.5017 21.2942 58.2313C21.491 57.961 21.7579 57.8091 22.0362 57.8091C22.3145 57.8091 22.5814 57.961 22.7782 58.2313C22.975 58.5017 23.0855 58.8684 23.0855 59.2508V71.0703C23.0832 71.4505 22.9717 71.8142 22.7751 72.082C22.5786 72.3498 22.313 72.5 22.0362 72.5Z" fill="#FFCE42"/>
<path d="M22.1161 60.9571H21.9726C20.3278 60.9579 18.6989 60.5907 17.1791 59.8764C15.6593 59.162 14.2782 58.1146 13.1147 56.7939C11.9513 55.4732 11.0283 53.9051 10.3984 52.1791C9.76858 50.4531 9.44421 48.6031 9.44385 46.7347C9.44385 46.3321 9.58463 45.9461 9.83523 45.6614C10.0858 45.3767 10.4257 45.2168 10.7801 45.2168C11.1345 45.2168 11.4744 45.3767 11.725 45.6614C11.9756 45.9461 12.1163 46.3321 12.1163 46.7347C12.1171 49.7013 13.1549 52.5462 15.0016 54.6439C16.8482 56.7417 19.3527 57.9205 21.9643 57.9213H22.1079C24.7195 57.9205 27.2239 56.7417 29.0706 54.6439C30.9173 52.5462 31.9551 49.7013 31.9558 46.7347C31.9558 46.3321 32.0966 45.9461 32.3472 45.6614C32.5978 45.3767 32.9377 45.2168 33.2921 45.2168C33.6465 45.2168 33.9863 45.3767 34.2369 45.6614C34.4875 45.9461 34.6283 46.3321 34.6283 46.7347C34.6276 50.5065 33.3082 54.1235 30.9604 56.7906C28.6125 59.4576 25.4283 60.9563 22.1079 60.9571H22.1161Z" fill="#FFCE42"/>
<path d="M25.451 46.688V44.9053H29.3816V43.1226H25.451V41.3399H29.3816V39.5457H25.451V37.763H29.3816V35.9688H25.451V34.1803H29.3816V33.8515C29.3816 31.8563 28.6157 29.9427 27.2522 28.5319C25.8888 27.1211 24.0396 26.3285 22.1114 26.3285H21.9665C20.0383 26.3285 18.1891 27.1211 16.8256 28.5319C15.4622 29.9427 14.6963 31.8563 14.6963 33.8515V34.1803H18.6213V35.963H14.6907V37.7572H18.6157V39.5399H14.6907V41.3341H18.6157V43.1226H14.6907V44.9168H18.6157V46.6995H14.6907V47.1524C14.6944 49.1451 15.462 51.0549 16.825 52.4627C18.188 53.8704 20.0351 54.661 21.9609 54.661H22.1058C23.0608 54.6618 24.0066 54.4678 24.8891 54.0903C25.7716 53.7127 26.5736 53.159 27.2493 52.4606C27.9249 51.7623 28.461 50.933 28.8269 50.0202C29.1928 49.1075 29.3813 48.129 29.3816 47.1408V46.688H25.451Z" fill="#FFCE42"/>
</svg>
